<svg width="52" height="42" viewBox="0 0 52 42" fill="none" xmlns="http://www.w3.org/2000/svg">
<path d="M4 30.6923C4 31.5845 3.10457 32.3077 2 32.3077C0.89543 32.3077 0 31.5845 0 30.6923C0 29.8002 0.89543 29.0769 2 29.0769C3.10457 29.0769 4 29.8002 4 30.6923Z" fill="#E6A40B"/>
<path d="M4 40.3846C4 41.2768 3.10457 42 2 42C0.89543 42 0 41.2768 0 40.3846C0 39.4925 0.89543 38.7692 2 38.7692C3.10457 38.7692 4 39.4925 4 40.3846Z" fill="#E6A40B"/>
<path d="M16 11.3077C16 12.1998 15.1046 12.9231 14 12.9231C12.8954 12.9231 12 12.1998 12 11.3077C12 10.4155 12.8954 9.69231 14 9.69231C15.1046 9.69231 16 10.4155 16 11.3077Z" fill="#E6A40B"/>
<path d="M16 21C16 21.8922 15.1046 22.6154 14 22.6154C12.8954 22.6154 12 21.8922 12 21C12 20.1078 12.8954 19.3846 14 19.3846C15.1046 19.3846 16 20.1078 16 21Z" fill="#E6A40B"/>
<path d="M16 30.6923C16 31.5845 15.1046 32.3077 14 32.3077C12.8954 32.3077 12 31.5845 12 30.6923C12 29.8002 12.8954 29.0769 14 29.0769C15.1046 29.0769 16 29.8002 16 30.6923Z" fill="#E6A40B"/>
<path d="M16 40.3846C16 41.2768 15.1046 42 14 42C12.8954 42 12 41.2768 12 40.3846C12 39.4925 12.8954 38.7692 14 38.7692C15.1046 38.7692 16 39.4925 16 40.3846Z" fill="#E6A40B"/>
<path d="M28 11.3077C28 12.1998 27.1046 12.9231 26 12.9231C24.8954 12.9231 24 12.1998 24 11.3077C24 10.4155 24.8954 9.69231 26 9.69231C27.1046 9.69231 28 10.4155 28 11.3077Z" fill="#E6A40B"/>
<path d="M28 21C28 21.8922 27.1046 22.6154 26 22.6154C24.8954 22.6154 24 21.8922 24 21C24 20.1078 24.8954 19.3846 26 19.3846C27.1046 19.3846 28 20.1078 28 21Z" fill="#E6A40B"/>
<path d="M28 30.6923C28 31.5845 27.1046 32.3077 26 32.3077C24.8954 32.3077 24 31.5845 24 30.6923C24 29.8002 24.8954 29.0769 26 29.0769C27.1046 29.0769 28 29.8002 28 30.6923Z" fill="#E6A40B"/>
<path d="M28 40.3846C28 41.2768 27.1046 42 26 42C24.8954 42 24 41.2768 24 40.3846C24 39.4925 24.8954 38.7692 26 38.7692C27.1046 38.7692 28 39.4925 28 40.3846Z" fill="#E6A40B"/>
<path d="M40 1.61538C40 2.50754 39.1046 3.23077 38 3.23077C36.8954 3.23077 36 2.50754 36 1.61538C36 0.723232 36.8954 0 38 0C39.1046 0 40 0.723232 40 1.61538Z" fill="#E6A40B"/>
<path d="M40 11.3077C40 12.1998 39.1046 12.9231 38 12.9231C36.8954 12.9231 36 12.1998 36 11.3077C36 10.4155 36.8954 9.69231 38 9.69231C39.1046 9.69231 40 10.4155 40 11.3077Z" fill="#E6A40B"/>
<path d="M40 21C40 21.8922 39.1046 22.6154 38 22.6154C36.8954 22.6154 36 21.8922 36 21C36 20.1078 36.8954 19.3846 38 19.3846C39.1046 19.3846 40 20.1078 40 21Z" fill="#E6A40B"/>
<path d="M40 30.6923C40 31.5845 39.1046 32.3077 38 32.3077C36.8954 32.3077 36 31.5845 36 30.6923C36 29.8002 36.8954 29.0769 38 29.0769C39.1046 29.0769 40 29.8002 40 30.6923Z" fill="#E6A40B"/>
<path d="M40 40.3846C40 41.2768 39.1046 42 38 42C36.8954 42 36 41.2768 36 40.3846C36 39.4925 36.8954 38.7692 38 38.7692C39.1046 38.7692 40 39.4925 40 40.3846Z" fill="#E6A40B"/>
<path d="M52 1.61538C52 2.50754 51.1046 3.23077 50 3.23077C48.8954 3.23077 48 2.50754 48 1.61538C48 0.723232 48.8954 0 50 0C51.1046 0 52 0.723232 52 1.61538Z" fill="#E6A40B"/>
<path d="M52 11.3077C52 12.1998 51.1046 12.9231 50 12.9231C48.8954 12.9231 48 12.1998 48 11.3077C48 10.4155 48.8954 9.69231 50 9.69231C51.1046 9.69231 52 10.4155 52 11.3077Z" fill="#E6A40B"/>
<path d="M52 21C52 21.8922 51.1046 22.6154 50 22.6154C48.8954 22.6154 48 21.8922 48 21C48 20.1078 48.8954 19.3846 50 19.3846C51.1046 19.3846 52 20.1078 52 21Z" fill="#E6A40B"/>
<path d="M52 30.6923C52 31.5845 51.1046 32.3077 50 32.3077C48.8954 32.3077 48 31.5845 48 30.6923C48 29.8002 48.8954 29.0769 50 29.0769C51.1046 29.0769 52 29.8002 52 30.6923Z" fill="#E6A40B"/>
<path d="M52 40.3846C52 41.2768 51.1046 42 50 42C48.8954 42 48 41.2768 48 40.3846C48 39.4925 48.8954 38.7692 50 38.7692C51.1046 38.7692 52 39.4925 52 40.3846Z" fill="#E6A40B"/>
</svg>
